<svg id="visual" viewBox="0 0 1980 100" width="1980" height="100" xmlns="http://www.w3.org/2000/svg" xmlns:xlink="http://www.w3.org/1999/xlink" version="1.1"><path d="M0 18L16.5 18.3C33 18.7 66 19.3 99 21C132 22.7 165 25.3 198 28.3C231 31.3 264 34.7 297 30.5C330 26.3 363 14.7 396 13.2C429 11.7 462 20.3 495 22.8C528 25.3 561 21.7 594 28.7C627 35.7 660 53.3 693 56.8C726 60.3 759 49.7 792 46.8C825 44 858 49 891 47.7C924 46.3 957 38.7 990 34.7C1023 30.7 1056 30.3 1089 26.5C1122 22.7 1155 15.3 1188 15C1221 14.7 1254 21.3 1287 20.5C1320 19.7 1353 11.3 1386 15.5C1419 19.7 1452 36.3 1485 39.7C1518 43 1551 33 1584 27.3C1617 21.7 1650 20.3 1683 27C1716 33.7 1749 48.3 1782 48.5C1815 48.7 1848 34.3 1881 30.3C1914 26.3 1947 32.7 1963.5 35.8L1980 39L1980 0L1963.5 0C1947 0 1914 0 1881 0C1848 0 1815 0 1782 0C1749 0 1716 0 1683 0C1650 0 1617 0 1584 0C1551 0 1518 0 1485 0C1452 0 1419 0 1386 0C1353 0 1320 0 1287 0C1254 0 1221 0 1188 0C1155 0 1122 0 1089 0C1056 0 1023 0 990 0C957 0 924 0 891 0C858 0 825 0 792 0C759 0 726 0 693 0C660 0 627 0 594 0C561 0 528 0 495 0C462 0 429 0 396 0C363 0 330 0 297 0C264 0 231 0 198 0C165 0 132 0 99 0C66 0 33 0 16.5 0L0 0Z" fill="#93b9ff"></path><path d="M0 59L16.5 64C33 69 66 79 99 77.8C132 76.7 165 64.3 198 57.8C231 51.3 264 50.7 297 49.2C330 47.7 363 45.3 396 48.7C429 52 462 61 495 62.5C528 64 561 58 594 60.7C627 63.3 660 74.7 693 77C726 79.3 759 72.7 792 70.5C825 68.3 858 70.7 891 71.3C924 72 957 71 990 67.7C1023 64.3 1056 58.7 1089 58.5C1122 58.3 1155 63.7 1188 65.7C1221 67.7 1254 66.3 1287 64C1320 61.7 1353 58.3 1386 59.3C1419 60.3 1452 65.7 1485 68.7C1518 71.7 1551 72.3 1584 71.3C1617 70.3 1650 67.7 1683 67.2C1716 66.7 1749 68.3 1782 66C1815 63.7 1848 57.3 1881 54.7C1914 52 1947 53 1963.5 53.5L1980 54L1980 37L1963.5 33.8C1947 30.7 1914 24.3 1881 28.3C1848 32.3 1815 46.7 1782 46.5C1749 46.3 1716 31.7 1683 25C1650 18.3 1617 19.7 1584 25.3C1551 31 1518 41 1485 37.7C1452 34.3 1419 17.7 1386 13.5C1353 9.3 1320 17.7 1287 18.5C1254 19.3 1221 12.7 1188 13C1155 13.3 1122 20.7 1089 24.5C1056 28.3 1023 28.7 990 32.7C957 36.7 924 44.3 891 45.7C858 47 825 42 792 44.8C759 47.7 726 58.3 693 54.8C660 51.3 627 33.7 594 26.7C561 19.7 528 23.3 495 20.8C462 18.3 429 9.7 396 11.2C363 12.7 330 24.3 297 28.5C264 32.7 231 29.3 198 26.3C165 23.3 132 20.7 99 19C66 17.3 33 16.7 16.5 16.3L0 16Z" fill="#82aeff"></path><path d="M0 81L16.5 83.5C33 86 66 91 99 89.5C132 88 165 80 198 74.3C231 68.7 264 65.3 297 64.7C330 64 363 66 396 68.3C429 70.7 462 73.3 495 71.5C528 69.7 561 63.3 594 65.3C627 67.3 660 77.7 693 80.5C726 83.3 759 78.7 792 77.2C825 75.7 858 77.3 891 78.3C924 79.3 957 79.7 990 76.7C1023 73.7 1056 67.3 1089 65.7C1122 64 1155 67 1188 69.2C1221 71.3 1254 72.7 1287 74.5C1320 76.3 1353 78.7 1386 78.7C1419 78.7 1452 76.3 1485 76C1518 75.7 1551 77.3 1584 78.8C1617 80.3 1650 81.7 1683 82.3C1716 83 1749 83 1782 82.3C1815 81.7 1848 80.3 1881 78.2C1914 76 1947 73 1963.5 71.5L1980 70L1980 52L1963.5 51.5C1947 51 1914 50 1881 52.7C1848 55.3 1815 61.7 1782 64C1749 66.3 1716 64.7 1683 65.2C1650 65.7 1617 68.3 1584 69.3C1551 70.3 1518 69.7 1485 66.7C1452 63.7 1419 58.3 1386 57.3C1353 56.3 1320 59.7 1287 62C1254 64.3 1221 65.7 1188 63.7C1155 61.7 1122 56.3 1089 56.5C1056 56.7 1023 62.3 990 65.7C957 69 924 70 891 69.3C858 68.7 825 66.3 792 68.5C759 70.7 726 77.3 693 75C660 72.7 627 61.3 594 58.7C561 56 528 62 495 60.5C462 59 429 50 396 46.7C363 43.3 330 45.7 297 47.2C264 48.7 231 49.3 198 55.8C165 62.3 132 74.7 99 75.8C66 77 33 67 16.5 62L0 57Z" fill="#72a3ff"></path><path d="M0 101L16.5 101C33 101 66 101 99 101C132 101 165 101 198 101C231 101 264 101 297 101C330 101 363 101 396 101C429 101 462 101 495 101C528 101 561 101 594 101C627 101 660 101 693 101C726 101 759 101 792 101C825 101 858 101 891 101C924 101 957 101 990 101C1023 101 1056 101 1089 101C1122 101 1155 101 1188 101C1221 101 1254 101 1287 101C1320 101 1353 101 1386 101C1419 101 1452 101 1485 101C1518 101 1551 101 1584 101C1617 101 1650 101 1683 101C1716 101 1749 101 1782 101C1815 101 1848 101 1881 101C1914 101 1947 101 1963.5 101L1980 101L1980 68L1963.5 69.5C1947 71 1914 74 1881 76.2C1848 78.3 1815 79.7 1782 80.3C1749 81 1716 81 1683 80.3C1650 79.7 1617 78.3 1584 76.8C1551 75.3 1518 73.7 1485 74C1452 74.3 1419 76.7 1386 76.7C1353 76.7 1320 74.3 1287 72.5C1254 70.7 1221 69.3 1188 67.2C1155 65 1122 62 1089 63.7C1056 65.3 1023 71.7 990 74.7C957 77.7 924 77.3 891 76.3C858 75.3 825 73.7 792 75.2C759 76.7 726 81.3 693 78.5C660 75.7 627 65.3 594 63.3C561 61.3 528 67.7 495 69.5C462 71.3 429 68.7 396 66.3C363 64 330 62 297 62.7C264 63.3 231 66.7 198 72.3C165 78 132 86 99 87.5C66 89 33 84 16.5 81.5L0 79Z" fill="#6198ff"></path></svg>